<svg width="140" height="140" viewBox="0 0 140 140" fill="none" xmlns="http://www.w3.org/2000/svg">
<g clip-path="url(#clip0_3401_11)">
<rect width="140" height="140" rx="70" fill="#3772FF"/>
<path d="M0.291016 140C0.742378 114.613 6.2298 74.4595 48.9396 62.5807C63.2847 59.3549 66.6111 59.603 89.2722 58.3623C110.686 56.3772 129.688 49.7271 140 0.297852" stroke="#36D6AD" stroke-width="2"/>
<path d="M132.224 0C129.356 17.1597 110.436 51.5741 57.7069 51.9537C32.3802 52.8051 3.37112 66.4503 0.271987 112.42V129.528C-0.0980566 123.381 -0.0832063 117.688 0.271987 112.42V0H132.224Z" fill="#36D6AD"/>
<path d="M132.224 0C129.356 17.1598 110.436 51.5741 57.7069 51.9537C29.4776 52.9026 -3.32676 69.7461 0.271987 129.528V0H132.224Z" stroke="#36D6AD"/>
<path d="M93.0087 24V30.4174C86.0245 26.3472 78.0911 24.1893 70.0075 24.161C63.972 24.0699 57.9813 25.21 52.4013 27.5117C46.8212 29.8133 41.7688 33.2282 37.5527 37.5477C33.1919 41.741 29.7392 46.7855 27.4087 52.3684C25.0783 57.9512 23.9197 63.9534 24.0049 70.0025C23.915 76.0563 25.0643 82.0645 27.3823 87.6577C29.7002 93.2509 33.1378 98.3108 37.4836 102.526C41.6933 106.88 46.7522 110.322 52.3467 112.641C57.9413 114.96 63.9523 116.105 70.0075 116.005C78.4931 116 86.8063 113.609 93.9978 109.105C94.9333 111.107 96.3964 112.816 98.23 114.05C100.064 115.349 102.262 116.034 104.509 116.005H116.01V24H93.0087ZM78.2189 56.3628C78.2608 55.5242 78.4781 54.7038 78.8568 53.9545C79.2355 53.2051 79.7672 52.5436 80.4175 52.0125C81.0677 51.4814 81.8222 51.0927 82.6321 50.8713C83.442 50.65 84.2893 50.601 85.1193 50.7275C86.8185 51.2971 88.2526 52.4653 89.154 54.0142C90.0554 55.5632 90.3627 57.3871 90.0186 59.1459C89.9802 59.9857 89.7652 60.808 89.3876 61.5591C89.0101 62.3102 88.4784 62.9733 87.8272 63.505C87.1761 64.0368 86.4202 64.4253 85.6088 64.6452C84.7974 64.8651 83.9487 64.9114 83.1182 64.7812C81.419 64.2116 79.9849 63.0434 79.0835 61.4945C78.182 59.9455 77.8747 58.1216 78.2189 56.3628V56.3628ZM64.9702 43.2751C65.7391 42.8312 66.5928 42.5543 67.4758 42.4621C68.3589 42.37 69.2514 42.4648 70.0954 42.7403C70.9393 43.0159 71.7158 43.466 72.3744 44.0614C73.0329 44.6568 73.5588 45.3842 73.9177 46.1962C74.9242 47.7928 75.3137 49.7017 75.0131 51.565C74.7124 53.4283 73.7422 55.1178 72.2846 56.3168C71.5157 56.7606 70.6619 57.0376 69.7789 57.1297C68.8959 57.2218 68.0034 57.127 67.1594 56.8515C66.3154 56.576 65.5389 56.1258 64.8804 55.5304C64.2218 54.935 63.696 54.2076 63.3371 53.3956C62.3305 51.799 61.941 49.8901 62.2417 48.0268C62.5424 46.1635 63.5125 44.474 64.9702 43.2751V43.2751ZM49.9963 49.7844C50.7644 49.3369 51.6184 49.0569 52.5023 48.9629C53.3863 48.8689 54.2801 48.9629 55.1251 49.2387C55.9701 49.5146 56.7472 49.9661 57.4053 50.5636C58.0635 51.1611 58.5878 51.8911 58.9438 52.7056C59.9504 54.3021 60.3399 56.2111 60.0392 58.0744C59.7386 59.9376 58.7684 61.6272 57.3107 62.8261C56.5413 63.2729 55.6859 63.5518 54.8009 63.6442C53.9159 63.7367 53.0213 63.6407 52.1761 63.3626C51.3309 63.0845 50.5541 62.6305 49.8969 62.0306C49.2398 61.4307 48.7171 60.6984 48.3633 59.882C47.3582 58.2889 46.9696 56.3837 47.2703 54.5244C47.571 52.665 48.5404 50.9794 49.9963 49.7844V49.7844ZM54.0216 77.3859C53.5494 78.0847 52.9353 78.6762 52.2193 79.1218C51.5033 79.5674 50.7014 79.8572 49.8659 79.9722C49.0305 80.0872 48.1801 80.0249 47.3703 79.7893C46.5606 79.5538 45.8095 79.1502 45.1661 78.605C43.6623 77.6497 42.5547 76.1829 42.0474 74.4751C41.5402 72.7674 41.6675 70.9338 42.4059 69.3125C42.8781 68.6137 43.4922 68.0222 44.2082 67.5766C44.9242 67.131 45.7261 66.8412 46.5615 66.7262C47.397 66.6112 48.2474 66.6735 49.0571 66.9091C49.8669 67.1446 50.618 67.5482 51.2614 68.0934C52.7707 69.0494 53.8821 70.5202 54.3896 72.2332C54.8972 73.9461 54.7664 75.785 54.0216 77.4089V77.3859ZM89.9496 84.9533C85.9013 88.0585 79.967 84.4703 75.0447 86.5634C70.0075 88.4035 68.1674 95.3039 63.1071 95.7869C58.0468 96.2699 54.1596 90.8416 58.7828 80.8361C61.911 73.9357 61.083 68.2544 66.6493 65.8393C72.2156 63.4242 75.7348 68.4614 82.7502 71.1986C93.0087 75.2008 93.9978 81.8482 89.9496 84.9533Z" fill="#FCF0E3"/>
</g>
<defs>
<clipPath id="clip0_3401_11">
<rect width="140" height="140" rx="70" fill="white"/>
</clipPath>
</defs>
</svg>
